# xmcd
#
# Track frame offsets: 
#        300
#        19575
#        42300
#        58575
#        86850
#        108975
#        135975
#        167175
#        195825
#        222375
#        243600
#        267750
#        296250
#
# Disc length: 4337 seconds
#
# Revision: 0
# Processed by: cddbd v1.5.2PL0 Copyright (c) Steve Scherf et al.
# Submitted via: ExactAudioCopy v1.0b4
#
DISCID=b510ed0d
DTITLE=Harry Morse Project - Love Bombing (Deluxe Edition)
DYEAR=2003
DGENRE=Electronic
TTITLE0=What You Came For
TTITLE1=Big Baby Bounce (feat. Sacha)
TTITLE2=Wandering Pearl (feat. Clementine Celarie)
TTITLE3=Something That Reloads Itself
TTITLE4=Laziness
TTITLE5=Gone With The Weed
TTITLE6=Brazilou
TTITLE7=I'm On Fire
TTITLE8=Moba
TTITLE9=Love Bombing
TTITLE10=Such A Modern Way To Think
TTITLE11=No Belly Dance
TTITLE12=So... Rest!
EXTD=
EXTT0=
EXTT1=
EXTT2=
EXTT3=
EXTT4=
EXTT5=
EXTT6=
EXTT7=
EXTT8=
EXTT9=
EXTT10=
EXTT11=
EXTT12=
PLAYORDER=
